<?xml version="1.0" encoding="UTF-8" standalone="no"?>
<!-- Created with Inkscape (http://www.inkscape.org/) -->

<svg
   width="32"
   height="32"
   viewBox="0 0 32 32"
   version="1.1"
   id="svg1"
   inkscape:version="1.3 (0e150ed6c4, 2023-07-21)"
   sodipodi:docname="icon2.svg"
   xmlns:inkscape="http://www.inkscape.org/namespaces/inkscape"
   xmlns:sodipodi="http://sodipodi.sourceforge.net/DTD/sodipodi-0.dtd"
   xmlns:xlink="http://www.w3.org/1999/xlink"
   xmlns="http://www.w3.org/2000/svg"
   xmlns:svg="http://www.w3.org/2000/svg">
  <sodipodi:namedview
     id="namedview1"
     pagecolor="#ffffff"
     bordercolor="#000000"
     borderopacity="0.25"
     inkscape:showpageshadow="2"
     inkscape:pageopacity="0.0"
     inkscape:pagecheckerboard="0"
     inkscape:deskcolor="#d1d1d1"
     inkscape:document-units="px"
     inkscape:zoom="11.979676"
     inkscape:cx="6.5945022"
     inkscape:cy="15.568034"
     inkscape:window-width="1366"
     inkscape:window-height="705"
     inkscape:window-x="-8"
     inkscape:window-y="-8"
     inkscape:window-maximized="1"
     inkscape:current-layer="layer1" />
  <defs
     id="defs1">
    <pattern
       inkscape:collect="always"
       xlink:href="#shading33"
       preserveAspectRatio="xMidYMid"
       id="pattern51"
       patternTransform="matrix(1.3535808,0,0,1.3535812,1287.7375,1729.9987)"
       x="0"
       y="0" />
    <pattern
       patternUnits="userSpaceOnUse"
       width="684.32459"
       height="639.79"
       patternTransform="translate(956.48011,1282.2992)"
       preserveAspectRatio="xMidYMid"
       id="shading33"
       style="fill:#e6e6e6"
       inkscape:label="Circle vertical lines halftone shading"
       inkscape:collect="always"
       inkscape:isstock="true">
      <path
         id="path33"
         style="fill-rule:nonzero;stroke:none;stroke-width:0.0239514;stroke-linecap:square;paint-order:markers fill stroke;stop-color:#000000"
         d="M 684.32459,0.001 H 342.16229 V 9.929 L 684.32459,0 Z m 0,9.118 h -342.1623 v 9.926 l 342.1623,-9.636 z m 0,9.117 h -342.1623 v 9.926 l 342.1623,-9.344 z m 0,9.118 h -342.1623 v 9.925 l 342.1623,-9.053 z m 0,9.118 h -342.1623 v 9.923 l 342.1623,-8.76 z m 0,9.117 h -342.1623 v 9.923 l 342.1623,-8.468 z m 0,9.118 h -342.1623 v 9.921 l 342.1623,-8.176 z m 0,9.118 h -342.1623 v 9.92 l 342.1623,-7.884 z m 0,9.117 h -342.1623 v 9.92 l 342.1623,-7.592 z m 0,9.118 h -342.1623 v 9.918 l 342.1623,-7.3 z m 0,9.117 h -342.1623 v 9.918 l 342.1623,-7.008 z m 0,9.118 h -342.1623 v 9.917 l 342.1623,-6.716 z m 0,9.118 h -342.1623 v 9.915 l 342.1623,-6.424 z m 0,9.117 h -342.1623 v 9.915 l 342.1623,-6.132 z m 0,9.118 h -342.1623 v 9.914 l 342.1623,-5.84 z m 0,9.117 h -342.1623 v 9.913 l 342.1623,-5.548 z m 0,9.118 h -342.1623 v 9.912 l 342.1623,-5.256 z m 0,9.118 h -342.1623 v 9.911 l 342.1623,-4.964 z m 0,9.117 h -342.1623 v 9.91 l 342.1623,-4.672 z m 0,9.118 h -342.1623 v 9.909 l 342.1623,-4.38 z m 0,9.118 h -342.1623 v 9.908 l 342.1623,-4.089 z m 0,9.117 h -342.1623 v 9.907 l 342.1623,-3.796 z m 0,9.118 h -342.1623 v 9.906 l 342.1623,-3.504 z m 0,9.117 h -342.1623 v 9.905 l 342.1623,-3.212 z m 0,9.118 h -342.1623 v 9.904 l 342.1623,-2.92 z m 0,9.118 h -342.1623 v 9.903 l 342.1623,-2.628 z m 0,9.117 h -342.1623 v 9.902 l 342.1623,-2.336 z m 0,9.118 h -342.1623 v 9.901 l 342.1623,-2.044 z m 0,9.117 h -342.1623 v 9.901 l 342.1623,-1.752 z m 0,9.118 h -342.1623 v 9.899 l 342.1623,-1.46 z m 0,9.118 h -342.1623 v 9.898 l 342.1623,-1.168 z m 0,9.117 h -342.1623 v 9.898 l 342.1623,-0.876 z m 0,9.118 h -342.1623 v 9.896 l 342.1623,-0.584 z m 0,9.118 h -342.1623 v 9.895 l 342.1623,-0.292 z m 0,9.117 h -342.1623 v 9.895 h 342.1623 z M 0,10e-4 H 342.16229 V 9.929 L 0,0 Z m 0,9.118 h 342.16229 v 9.926 L 0,9.409 Z m 0,9.117 h 342.16229 v 9.926 L 0,18.818 Z m 0,9.118 h 342.16229 v 9.925 L 0,28.226 Z m 0,9.118 h 342.16229 v 9.923 L 0,37.635 Z m 0,9.117 h 342.16229 v 9.923 L 0,47.044 Z m 0,9.118 h 342.16229 v 9.921 L 0,56.452 Z m 0,9.118 h 342.16229 v 9.92 L 0,65.861 Z m 0,9.117 h 342.16229 v 9.92 L 0,75.27 Z m 0,9.118 h 342.16229 v 9.918 L 0,84.678 Z m 0,9.117 h 342.16229 v 9.918 L 0,94.087 Z m 0,9.118 h 342.16229 v 9.917 L 0,103.496 Z m 0,9.118 h 342.16229 v 9.915 L 0,112.904 Z m 0,9.117 h 342.16229 v 9.915 L 0,122.313 Z m 0,9.118 h 342.16229 v 9.914 L 0,131.722 Z m 0,9.117 h 342.16229 v 9.913 L 0,141.13 Z m 0,9.118 h 342.16229 v 9.912 L 0,150.539 Z m 0,9.118 h 342.16229 v 9.911 L 0,159.948 Z m 0,9.117 h 342.16229 v 9.91 L 0,169.356 Z m 0,9.118 h 342.16229 v 9.909 L 0,178.765 Z m 0,9.118 h 342.16229 v 9.908 L 0,188.173 Z m 0,9.117 h 342.16229 v 9.907 L 0,197.582 Z m 0,9.118 h 342.16229 v 9.906 L 0,206.991 Z m 0,9.117 h 342.16229 v 9.905 L 0,216.399 Z m 0,9.118 h 342.16229 v 9.904 L 0,225.808 Z m 0,9.118 h 342.16229 v 9.903 L 0,235.217 Z m 0,9.117 h 342.16229 v 9.902 L 0,244.625 Z m 0,9.118 h 342.16229 v 9.901 L 0,254.034 Z m 0,9.117 h 342.16229 v 9.901 L 0,263.443 Z m 0,9.118 h 342.16229 v 9.899 L 0,272.851 Z m 0,9.118 h 342.16229 v 9.898 L 0,282.26 Z m 0,9.117 h 342.16229 v 9.898 L 0,291.669 Z m 0,9.118 h 342.16229 v 9.896 L 0,301.077 Z m 0,9.118 h 342.16229 v 9.895 L 0,310.486 Z M 0,310 h 342.16229 v 9.895 H 0 Z m 684.32459,329.789 h -342.1623 v -9.928 l 342.1623,9.929 z m 0,-9.118 h -342.1623 v -9.926 l 342.1623,9.636 z m 0,-9.117 h -342.1623 v -9.926 l 342.1623,9.344 z m 0,-9.118 h -342.1623 v -9.925 l 342.1623,9.053 z m 0,-9.118 h -342.1623 v -9.923 l 342.1623,8.76 z m 0,-9.117 h -342.1623 v -9.923 l 342.1623,8.468 z m 0,-9.118 h -342.1623 v -9.921 l 342.1623,8.176 z m 0,-9.118 h -342.1623 v -9.92 l 342.1623,7.884 z m 0,-9.117 h -342.1623 v -9.92 l 342.1623,7.592 z m 0,-9.118 h -342.1623 v -9.918 l 342.1623,7.3 z m 0,-9.117 h -342.1623 v -9.918 l 342.1623,7.008 z m 0,-9.118 h -342.1623 v -9.917 l 342.1623,6.716 z m 0,-9.118 h -342.1623 v -9.915 l 342.1623,6.424 z m 0,-9.117 h -342.1623 v -9.915 l 342.1623,6.132 z m 0,-9.118 h -342.1623 v -9.914 l 342.1623,5.84 z m 0,-9.117 h -342.1623 v -9.913 l 342.1623,5.548 z m 0,-9.118 h -342.1623 v -9.912 l 342.1623,5.256 z m 0,-9.118 h -342.1623 v -9.911 l 342.1623,4.964 z m 0,-9.117 h -342.1623 v -9.91 l 342.1623,4.672 z m 0,-9.118 h -342.1623 v -9.909 l 342.1623,4.38 z m 0,-9.118 h -342.1623 v -9.908 l 342.1623,4.089 z m 0,-9.117 h -342.1623 v -9.907 l 342.1623,3.796 z m 0,-9.118 h -342.1623 v -9.906 l 342.1623,3.504 z m 0,-9.117 h -342.1623 v -9.905 l 342.1623,3.212 z m 0,-9.118 h -342.1623 v -9.904 l 342.1623,2.92 z m 0,-9.118 h -342.1623 v -9.903 l 342.1623,2.628 z m 0,-9.117 h -342.1623 v -9.902 l 342.1623,2.336 z m 0,-9.118 h -342.1623 v -9.901 l 342.1623,2.044 z m 0,-9.117 h -342.1623 v -9.901 l 342.1623,1.752 z m 0,-9.118 h -342.1623 v -9.899 l 342.1623,1.46 z m 0,-9.118 h -342.1623 v -9.898 l 342.1623,1.168 z m 0,-9.117 h -342.1623 v -9.898 l 342.1623,0.876 z m 0,-9.118 h -342.1623 v -9.896 l 342.1623,0.584 z m 0,-9.118 h -342.1623 v -9.895 l 342.1623,0.292 z m 0,-9.117 h -342.1623 v -9.895 h 342.1623 z M 0,639.789 h 342.16229 v -9.928 L 0,639.79 Z m 0,-9.118 h 342.16229 v -9.926 L 0,630.381 Z m 0,-9.117 h 342.16229 v -9.926 L 0,620.972 Z m 0,-9.118 h 342.16229 v -9.925 L 0,611.564 Z m 0,-9.118 h 342.16229 v -9.923 L 0,602.155 Z m 0,-9.117 h 342.16229 v -9.923 L 0,592.746 Z m 0,-9.118 h 342.16229 v -9.921 L 0,583.338 Z m 0,-9.118 h 342.16229 v -9.92 L 0,573.929 Z m 0,-9.117 h 342.16229 v -9.92 L 0,564.52 Z m 0,-9.118 h 342.16229 v -9.918 L 0,555.112 Z m 0,-9.117 h 342.16229 v -9.918 L 0,545.703 Z m 0,-9.118 h 342.16229 v -9.917 L 0,536.294 Z m 0,-9.118 h 342.16229 v -9.915 L 0,526.886 Z m 0,-9.117 h 342.16229 v -9.915 L 0,517.477 Z m 0,-9.118 h 342.16229 v -9.914 L 0,508.068 Z m 0,-9.117 h 342.16229 v -9.913 L 0,498.66 Z m 0,-9.118 h 342.16229 v -9.912 L 0,489.251 Z m 0,-9.118 h 342.16229 v -9.911 L 0,479.842 Z m 0,-9.117 h 342.16229 v -9.91 L 0,470.434 Z m 0,-9.118 h 342.16229 v -9.909 L 0,461.025 Z m 0,-9.118 h 342.16229 v -9.908 L 0,451.617 Z m 0,-9.117 h 342.16229 v -9.907 L 0,442.208 Z m 0,-9.118 h 342.16229 v -9.906 L 0,432.799 Z m 0,-9.117 h 342.16229 v -9.905 L 0,423.391 Z m 0,-9.118 h 342.16229 v -9.904 L 0,413.982 Z m 0,-9.118 h 342.16229 v -9.903 L 0,404.573 Z m 0,-9.117 h 342.16229 v -9.902 L 0,395.165 Z m 0,-9.118 h 342.16229 v -9.901 L 0,385.756 Z m 0,-9.117 h 342.16229 v -9.901 L 0,376.347 Z m 0,-9.118 h 342.16229 v -9.899 L 0,366.939 Z m 0,-9.118 h 342.16229 v -9.898 L 0,357.53 Z m 0,-9.117 h 342.16229 v -9.898 L 0,348.121 Z m 0,-9.118 h 342.16229 v -9.896 L 0,338.713 Z m 0,-9.118 h 342.16229 v -9.895 L 0,329.304 Z m 0,-9.117 h 342.16229 v -9.895 H 0 Z" />
    </pattern>
    <clipPath
       clipPathUnits="userSpaceOnUse"
       id="clipPath52">
      <path
         id="path52"
         style="stroke-width:0.1;stroke-linecap:square;paint-order:markers fill stroke;stop-color:#000000"
         d="m -880.82767,-187.29769 h 1640.84 v 73.28155 h -1640.84 z" />
    </clipPath>
    <clipPath
       clipPathUnits="userSpaceOnUse"
       id="clipPath24">
      <rect
         style="fill:none;stroke:#000000;stroke-width:0.999999;stroke-linecap:butt;stroke-linejoin:bevel;paint-order:stroke markers fill;stop-color:#000000"
         id="rect24"
         width="44.999748"
         height="77.937294"
         x="251.53429"
         y="222.73541" />
    </clipPath>
    <clipPath
       clipPathUnits="userSpaceOnUse"
       id="clipPath15">
      <rect
         style="fill:none;stroke:#000000;stroke-linecap:butt;stroke-linejoin:bevel;paint-order:stroke markers fill;stop-color:#000000"
         id="rect15-7"
         width="45.034248"
         height="38.955639"
         x="262.48285"
         y="121.00073" />
    </clipPath>
    <inkscape:perspective
       sodipodi:type="inkscape:persp3d"
       inkscape:vp_x="0 : 16 : 1"
       inkscape:vp_y="0 : 1000 : 0"
       inkscape:vp_z="32 : 16 : 1"
       inkscape:persp3d-origin="16 : 10.666667 : 1"
       id="perspective1" />
  </defs>
  <g
     inkscape:label="Слой 1"
     inkscape:groupmode="layer"
     id="layer1">
    <rect
       style="mix-blend-mode:normal;fill:#252525;fill-opacity:1;stroke:#004e74;stroke-width:1.87488;stroke-linecap:round;stroke-linejoin:round;stroke-miterlimit:4;stroke-dasharray:none;stroke-opacity:1;paint-order:stroke fill markers"
       id="rect6"
       width="28.125118"
       height="28.125122"
       x="1.9374409"
       y="1.937439" />
    <text
       xml:space="preserve"
       style="font-size:26.2088px;fill:#004e74;fill-opacity:1;stroke:url(#pattern51);stroke-width:2.182;stroke-linecap:round;stroke-linejoin:round;stroke-miterlimit:4;stroke-dasharray:none;stroke-opacity:1;paint-order:stroke fill markers"
       x="6.8954954"
       y="24.911613"
       id="text6"
       transform="scale(0.96150306,1.0400383)"><tspan
         sodipodi:role="line"
         id="tspan6"
         x="6.8954954"
         y="24.911613"
         style="fill:#004e74;fill-opacity:1;stroke:url(#pattern51);stroke-width:2.182;stroke-dasharray:none;stroke-opacity:1">B</tspan><tspan
         sodipodi:role="line"
         x="6.8954954"
         y="57.672611"
         id="tspan7"
         style="fill:#004e74;fill-opacity:1;stroke:url(#pattern51);stroke-width:2.182;stroke-dasharray:none;stroke-opacity:1" /></text>
    <text
       xml:space="preserve"
       style="fill:#128dff;fill-opacity:1;stroke:#000000;stroke-width:0.999;stroke-linecap:round;stroke-linejoin:round;stroke-miterlimit:4;stroke-dasharray:none;stroke-opacity:1;paint-order:stroke fill markers"
       x="23.790293"
       y="34.642006"
       id="text8"><tspan
         sodipodi:role="line"
         id="tspan8"
         x="23.790293"
         y="34.642006" /></text>
  </g>
</svg>
